<svg width="60" height="60" viewBox="0 0 60 60" fill="none" xmlns="http://www.w3.org/2000/svg">
<path d="M30 60C46.5686 60 60 46.5685 60 30C60 13.4315 46.5686 0 30 0C13.4315 0 0 13.4315 0 30C0 46.5685 13.4315 60 30 60Z" fill="#305573"/>
<path d="M32.0449 26.3182C32.4642 25.8472 32.8088 25.3705 33.2396 24.9627C34.5665 23.7162 36.1288 23.0844 37.9611 23.1017C38.9662 23.1074 39.9599 23.1821 40.9306 23.4635C43.1477 24.1068 44.4343 25.6289 45.0489 27.7944C45.5084 29.4199 45.5946 31.0856 45.6003 32.757C45.6061 36.2837 45.5888 39.8104 45.6003 43.3372C45.6003 43.6703 45.5084 43.7565 45.181 43.7507C43.366 43.7335 41.5452 43.7335 39.7301 43.7507C39.4085 43.7507 39.3396 43.6531 39.3396 43.3544C39.3511 40 39.3511 36.6399 39.3396 33.2855C39.3396 32.4469 39.2821 31.6025 39.0466 30.7869C38.6101 29.282 37.536 28.5123 35.9565 28.5985C33.8025 28.7134 32.6825 29.7817 32.4068 31.9701C32.3436 32.4928 32.3091 33.0155 32.3091 33.5439C32.3091 36.8064 32.3091 40.0747 32.3206 43.3372C32.3206 43.6646 32.2402 43.7565 31.9071 43.7565C30.0748 43.7392 28.2482 43.745 26.416 43.7565C26.123 43.7565 26.0369 43.6818 26.0369 43.3831C26.0426 36.9213 26.0426 30.4595 26.0369 23.992C26.0369 23.6703 26.1403 23.5956 26.4447 23.6014C28.1851 23.6129 29.9197 23.6186 31.6601 23.6014C31.9817 23.6014 32.0621 23.7048 32.0564 24.0034C32.0392 24.7731 32.0507 25.5485 32.0507 26.3239L32.0449 26.3182Z" fill="#FDFDFD"/>
<path d="M22.0849 33.7048C22.0849 36.9041 22.0849 40.0976 22.0906 43.297C22.0906 43.6531 22.0045 43.7622 21.6369 43.7565C19.8218 43.7392 18.001 43.7392 16.186 43.7565C15.893 43.7565 15.8069 43.6875 15.8069 43.3831C15.8184 36.9098 15.8126 30.4365 15.8069 23.9632C15.8069 23.6933 15.8701 23.6014 16.1573 23.6014C18.001 23.6129 19.8448 23.6186 21.6886 23.6014C22.0447 23.6014 22.0906 23.7335 22.0906 24.0379C22.0791 27.2602 22.0906 30.4882 22.0906 33.7105L22.0849 33.7048Z" fill="#FDFDFD"/>
<path d="M22.5904 17.1798C22.5904 19.1844 20.9649 20.8213 18.9603 20.8213C16.9844 20.8213 15.3417 19.1844 15.336 17.2085C15.3302 15.2096 16.9729 13.5669 18.9718 13.5669C20.9592 13.5669 22.5904 15.1981 22.5961 17.1798H22.5904Z" fill="#FDFDFD"/>
</svg>
