<svg width="200" height="65" viewBox="0 0 200 65" fill="none" xmlns="http://www.w3.org/2000/svg">
<g clip-path="url(#clip0_1_7)">
<path d="M86.2652 25.1032H83.1624V0.309547H94.0504C96.6368 0.309547 98.5691 0.85125 99.8516 1.93895C101.134 3.02236 101.775 4.66036 101.775 6.85297V8.77472C101.775 10.7395 101.272 12.2657 100.269 13.362C99.2663 14.4583 97.7386 15.1376 95.6944 15.4084L102.055 25.1075H98.5175L92.2214 15.4987H86.2652V25.1075V25.1032ZM86.2652 12.7687H94.0203C95.6944 12.7687 96.8908 12.4592 97.6051 11.8401C98.3195 11.221 98.6767 10.1978 98.6767 8.77042V6.84867C98.6767 5.50731 98.3195 4.54428 97.6051 3.96819C96.8908 3.38779 95.6987 3.09975 94.0203 3.09975H86.2652V12.7687Z" fill="black"/>
<path d="M118.142 25.417C114.893 25.417 112.53 24.6131 111.054 23.0009C109.573 21.3887 108.837 19.2304 108.837 16.5219V0.309547H111.94V16.5176C111.94 18.4394 112.358 19.9398 113.197 21.0103C114.036 22.0851 115.684 22.6225 118.146 22.6225C120.608 22.6225 122.256 22.0851 123.095 21.0103C123.934 19.9355 124.352 18.4394 124.352 16.5176V0.309547H127.455V16.5176C127.455 19.2261 126.714 21.3844 125.238 22.9966C123.758 24.6088 121.395 25.4127 118.15 25.4127L118.142 25.417Z" fill="black"/>
<path d="M134.508 25.1032V0.309547H142.917C146.102 0.309547 148.598 1.1307 150.41 2.773C152.222 4.41531 153.126 6.59932 153.126 9.32932V16.2081C153.126 18.9166 152.213 21.0748 150.397 22.687C148.577 24.2992 146.072 25.1032 142.887 25.1032H134.513H134.508ZM137.611 22.3173H142.887C145.284 22.3173 147.075 21.7541 148.254 20.6277C149.433 19.5013 150.023 18.031 150.023 16.2124V9.33362C150.023 7.53655 149.433 6.04901 148.254 4.87103C147.075 3.69304 145.284 3.10404 142.887 3.10404H137.611V22.3216V22.3173Z" fill="black"/>
<path d="M163.282 13.3276V25.1032H160.179V0.309547H163.282V10.5374H164.336L173.925 0.309547H177.522L166.88 11.7154L177.428 25.1032H173.705L164.427 13.3276H163.278H163.282Z" fill="black"/>
<path d="M190.696 25.417C187.614 25.417 185.29 24.6733 183.733 23.1857C182.17 21.6982 181.391 19.4755 181.391 16.5219V9.01978C181.391 6.02322 182.179 3.77042 183.75 2.26139C185.321 0.752365 187.649 0 190.73 0C193.811 0 196.127 0.756664 197.68 2.26139C199.23 3.77042 200.009 6.02322 200.009 9.01978V16.5219C200.009 19.4755 199.23 21.6982 197.667 23.1857C196.105 24.6733 193.786 25.417 190.704 25.417H190.696ZM190.696 22.6268C192.929 22.6268 194.522 22.1582 195.473 21.2167C196.424 20.2751 196.901 18.7102 196.901 16.5219V9.01978C196.901 6.78848 196.424 5.19346 195.473 4.23044C194.522 3.27171 192.929 2.7902 190.696 2.7902C188.462 2.7902 186.87 3.27171 185.919 4.23044C184.968 5.18917 184.49 6.78848 184.49 9.01978V16.5219C184.49 18.7145 184.963 20.2794 185.919 21.2167C186.87 22.1582 188.462 22.6268 190.696 22.6268Z" fill="black"/>
<path d="M92.7506 62.8504C89.3594 62.8504 86.8547 62.0464 85.2409 60.4342C83.627 58.822 82.8223 56.6638 82.8223 53.9553V46.4531C82.8223 43.7274 83.584 41.5391 85.1032 39.8968C86.6223 38.2545 89.0797 37.4334 92.4709 37.4334C95.5522 37.4334 97.7815 38.0482 99.1586 39.2777C100.536 40.5073 101.293 42.485 101.44 45.215L98.3367 45.5245C98.1903 43.7274 97.7514 42.3947 97.0198 41.5262C96.2838 40.6578 94.7604 40.2236 92.4451 40.2236C89.8199 40.2236 88.0769 40.8126 87.2162 41.9905C86.3598 43.1685 85.9294 44.6561 85.9294 46.4531V53.9553C85.9294 55.7524 86.4114 57.2184 87.3711 58.3577C88.3308 59.4927 90.1254 60.0602 92.7549 60.0602C95.3844 60.0602 97.0714 59.4454 97.8288 58.2158C98.582 56.9862 98.9607 55.2752 98.9607 53.0868H92.1352V50.2966H102.064V53.6457C102.064 56.3543 101.362 58.5641 99.9548 60.2795C98.5475 61.9948 96.1504 62.8504 92.7549 62.8504H92.7506Z" fill="black"/>
<path d="M111.243 62.5408H108.14V37.7472H119.028C121.615 37.7472 123.547 38.2889 124.829 39.3766C126.112 40.46 126.753 42.098 126.753 44.2906V46.2124C126.753 48.1771 126.25 49.7034 125.247 50.7997C124.244 51.896 122.716 52.5752 120.672 52.8461L127.033 62.5451H123.495L117.199 52.9364H111.243V62.5451V62.5408ZM111.243 50.2021H118.998C120.672 50.2021 121.869 49.8925 122.583 49.2734C123.297 48.6543 123.655 47.6311 123.655 46.2038V44.282C123.655 42.9407 123.297 41.9776 122.583 41.4016C121.869 40.8212 120.676 40.5331 118.998 40.5331H111.243V50.2021Z" fill="black"/>
<path d="M142.418 62.8504C139.337 62.8504 137.013 62.1066 135.455 60.6191C133.893 59.1316 133.114 56.9089 133.114 53.9553V46.4531C133.114 43.4566 133.901 41.2038 135.472 39.6948C137.043 38.1857 139.371 37.4334 142.453 37.4334C145.534 37.4334 147.849 38.19 149.403 39.6948C150.952 41.2038 151.731 43.4566 151.731 46.4531V53.9553C151.731 56.9089 150.952 59.1316 149.39 60.6191C147.828 62.1066 145.508 62.8504 142.427 62.8504H142.418ZM142.418 60.0602C144.652 60.0602 146.244 59.5916 147.195 58.65C148.146 57.7085 148.624 56.1436 148.624 53.9553V46.4531C148.624 44.2218 148.146 42.6268 147.195 41.6638C146.244 40.7051 144.652 40.2236 142.418 40.2236C140.185 40.2236 138.592 40.7051 137.641 41.6638C136.69 42.6225 136.212 44.2218 136.212 46.4531V53.9553C136.212 56.1479 136.686 57.7128 137.641 58.65C138.592 59.5916 140.185 60.0602 142.418 60.0602Z" fill="black"/>
<path d="M167.409 62.8504C164.16 62.8504 161.797 62.0464 160.321 60.4342C158.841 58.822 158.105 56.6638 158.105 53.9553V37.7472H161.208V53.9553C161.208 55.877 161.625 57.3775 162.464 58.448C163.303 59.5228 164.952 60.0602 167.413 60.0602C169.875 60.0602 171.523 59.5228 172.362 58.448C173.202 57.3732 173.619 55.877 173.619 53.9553V37.7472H176.722V53.9553C176.722 56.6638 175.982 58.822 174.506 60.4342C173.025 62.0464 170.663 62.8504 167.418 62.8504H167.409Z" fill="black"/>
<path d="M183.423 62.5408V37.7472H192.142C194.642 37.7472 196.557 38.3061 197.883 39.4196C199.204 40.5331 199.867 42.1582 199.867 44.2863V47.3259C199.867 49.454 199.204 51.0748 197.883 52.1926C196.557 53.3104 194.633 53.865 192.112 53.865H186.525V62.5451H183.423V62.5408ZM186.525 51.135H192.112C193.764 51.135 194.956 50.8298 195.679 50.2193C196.402 49.6088 196.764 48.6242 196.764 47.2614V44.411C196.764 43.0482 196.402 42.0593 195.679 41.4488C194.956 40.8384 193.764 40.5331 192.112 40.5331H186.525V51.135Z" fill="black"/>
<path d="M39.8983 20.1161C28.864 20.1161 19.891 29.0843 19.891 40.1032C19.891 51.1221 28.8683 60.0903 39.8983 60.0903C50.0978 60.0903 58.5414 52.4248 59.7593 42.5537H39.8983V37.644H64.8203V40.0989C64.8203 53.8263 53.6396 64.9957 39.8983 64.9957C26.157 64.9957 14.9763 53.8263 14.9763 40.0989C14.9763 26.3715 26.157 15.2021 39.8983 15.2021C46.2934 15.2021 52.3744 17.6182 57.0179 22.0077L53.6439 25.5761C49.9127 22.055 45.0325 20.1118 39.8983 20.1118" fill="url(#paint0_linear_1_7)"/>
<path d="M58.9159 62.5752L65.8361 62.5494L37.5616 34.3035C44.6668 32.1023 49.844 25.4772 49.844 17.6655C49.844 8.05675 42.0244 0.245056 32.4102 0.245056H0V62.5451H4.91468V35.0731H31.3946L58.9202 62.5709L58.9159 62.5752ZM4.91468 5.15477H32.4145C39.3175 5.15477 44.9336 10.7653 44.9336 17.6612C44.9336 24.5572 39.3175 30.1677 32.4145 30.1677H4.91468V5.15477Z" fill="url(#paint1_linear_1_7)"/>
<path d="M39.8983 20.1161C28.864 20.1161 19.891 29.0843 19.891 40.1032C19.891 51.1221 28.8683 60.0903 39.8983 60.0903C50.0978 60.0903 58.5414 52.4248 59.7593 42.5537H39.8983V37.644H64.8203V40.0989C64.8203 53.8263 53.6396 64.9957 39.8983 64.9957C26.157 64.9957 14.9763 53.8263 14.9763 40.0989C14.9763 26.3715 26.157 15.2021 39.8983 15.2021C46.2934 15.2021 52.3744 17.6182 57.0179 22.0077L53.6439 25.5761C49.9127 22.055 45.0325 20.1118 39.8983 20.1118" fill="url(#paint2_linear_1_7)"/>
</g>
<defs>
<linearGradient id="paint0_linear_1_7" x1="60.5813" y1="28.1728" x2="18.3416" y2="52.5864" gradientUnits="userSpaceOnUse">
<stop stop-color="#005EA0"/>
<stop offset="0.18" stop-color="#005B9C"/>
<stop offset="0.34" stop-color="#005591"/>
<stop offset="0.49" stop-color="#004B7F"/>
<stop offset="0.63" stop-color="#003C66"/>
<stop offset="0.77" stop-color="#002945"/>
<stop offset="0.91" stop-color="#00111E"/>
<stop offset="1"/>
</linearGradient>
<linearGradient id="paint1_linear_1_7" x1="67.5188" y1="59.6475" x2="-8.83104" y2="15.5222" gradientUnits="userSpaceOnUse">
<stop/>
<stop offset="0.41" stop-color="#000101"/>
<stop offset="0.56" stop-color="#000508"/>
<stop offset="0.66" stop-color="#000C14"/>
<stop offset="0.75" stop-color="#001525"/>
<stop offset="0.82" stop-color="#00223B"/>
<stop offset="0.88" stop-color="#003256"/>
<stop offset="0.94" stop-color="#004576"/>
<stop offset="0.99" stop-color="#005B9B"/>
<stop offset="1" stop-color="#005EA0"/>
</linearGradient>
<linearGradient id="paint2_linear_1_7" x1="60.5813" y1="28.1728" x2="18.3416" y2="52.5864" gradientUnits="userSpaceOnUse">
<stop stop-color="#005EA0"/>
<stop offset="0.18" stop-color="#005B9C"/>
<stop offset="0.34" stop-color="#005591"/>
<stop offset="0.49" stop-color="#004B7F"/>
<stop offset="0.63" stop-color="#003C66"/>
<stop offset="0.77" stop-color="#002945"/>
<stop offset="0.91" stop-color="#00111E"/>
<stop offset="1"/>
</linearGradient>
<clipPath id="clip0_1_7">
<rect width="200" height="65" fill="white"/>
</clipPath>
</defs>
</svg>
