<svg width="60" height="60" viewBox="0 0 60 60" fill="none" xmlns="http://www.w3.org/2000/svg">
<path d="M30 60C46.5685 60 60 46.5685 60 30C60 13.4315 46.5685 0 30 0C13.4315 0 0 13.4315 0 30C0 46.5685 13.4315 60 30 60Z" fill="#305573"/>
<path d="M44.6065 17.8116C44.4916 17.4784 44.3538 17.3865 44.1412 17.3061C43.676 17.1281 42.8833 17.398 42.8833 17.398C42.8833 17.398 14.842 27.4784 13.2452 28.5927C12.9006 28.834 12.7857 28.9718 12.7282 29.1384C12.4525 29.9311 13.3141 30.2814 13.3141 30.2814L20.5398 32.6364C20.5398 32.6364 20.8098 32.6766 20.9075 32.6134C22.5502 31.5738 37.4497 22.1654 38.3055 21.8495C38.4434 21.8093 38.541 21.8552 38.5123 21.9471C38.1677 23.1533 25.2326 34.6525 25.2326 34.6525C25.2326 34.6525 25.1809 34.7157 25.1521 34.7846L25.1349 34.7731L24.4629 41.9414C24.4629 41.9414 24.1814 44.1355 26.3756 41.9414C27.9264 40.3906 29.4255 39.0982 30.1722 38.4664C32.6593 40.1838 35.3302 42.0792 36.4847 43.0729C37.0648 43.5726 37.5473 43.6531 37.9494 43.6358C39.0465 43.5956 39.3509 42.3894 39.3509 42.3894C39.3509 42.3894 44.4629 21.8265 44.6295 19.0695C44.6467 18.7995 44.6697 18.6272 44.6697 18.4434C44.6697 18.1849 44.6467 17.9265 44.6065 17.8058V17.8116Z" fill="white"/>
</svg>
