<svg width="60" height="60" viewBox="0 0 60 60" fill="none" xmlns="http://www.w3.org/2000/svg">
<path d="M30 60C46.5685 60 60 46.5685 60 30C60 13.4315 46.5685 0 30 0C13.4315 0 0 13.4315 0 30C0 46.5685 13.4315 60 30 60Z" fill="#305573"/>
<path fill-rule="evenodd" clip-rule="evenodd" d="M43.5726 16.8007C40.2067 13.4348 35.7323 11.5738 30.9591 11.5738C21.1314 11.5738 13.136 19.5692 13.1303 29.3969C13.1303 32.5388 13.9517 35.606 15.5082 38.3056L12.981 47.5416L22.4295 45.066C25.0315 46.4848 27.9666 47.2315 30.9476 47.2372H30.9534C40.7811 47.2372 48.7765 39.2418 48.7822 29.4141C48.7822 24.6525 46.9327 20.1723 43.5668 16.8064L43.5726 16.8007ZM30.9591 44.2217H30.9534C28.294 44.2217 25.6863 43.5095 23.4117 42.1597L22.8718 41.838L17.2659 43.3084L18.765 37.8403L18.4146 37.2774C16.9327 34.9167 16.1458 32.1941 16.1516 29.3911C16.1516 21.2234 22.8029 14.5778 30.9764 14.5778C34.9339 14.5778 38.6559 16.1229 41.4531 18.9201C44.2504 21.7174 45.7897 25.4394 45.7897 29.4026C45.7897 37.5703 39.1383 44.216 30.9706 44.216L30.9591 44.2217ZM39.0866 33.1246C38.6386 32.9006 36.4502 31.8265 36.0424 31.6772C35.6346 31.5278 35.3359 31.4532 35.043 31.9012C34.7501 32.3492 33.8942 33.3486 33.63 33.6473C33.3715 33.946 33.1073 33.9805 32.6651 33.7564C32.217 33.5324 30.7868 33.0614 29.0809 31.5451C27.7541 30.3618 26.8638 28.9087 26.6053 28.4606C26.3468 28.0126 26.5766 27.7714 26.8006 27.5531C27.0016 27.3521 27.2486 27.0304 27.4669 26.772C27.6909 26.5135 27.7656 26.3239 27.9149 26.031C28.0642 25.7323 27.9896 25.4738 27.8804 25.2498C27.7713 25.0258 26.8753 22.8374 26.5077 21.9414C26.1458 21.0741 25.7782 21.189 25.5025 21.1775C25.244 21.166 24.9453 21.1602 24.6467 21.1602C24.348 21.1602 23.8655 21.2694 23.4577 21.7174C23.0499 22.1654 21.9011 23.2395 21.9011 25.4336C21.9011 27.6278 23.4979 29.7415 23.7219 30.0402C23.9459 30.3389 26.8638 34.8363 31.3325 36.7662C32.3951 37.2257 33.2279 37.5014 33.8713 37.7025C34.9396 38.0413 35.9103 37.9954 36.68 37.8805C37.5358 37.7541 39.3164 36.8007 39.684 35.761C40.0574 34.7214 40.0574 33.8311 39.9425 33.6416C39.8333 33.4578 39.5347 33.3429 39.0866 33.1189V33.1246Z" fill="white"/>
</svg>
